<svg width="100" height="103" viewBox="0 0 100 103" fill="none" xmlns="http://www.w3.org/2000/svg">
<mask id="path-1-inside-1_76_81" fill="white">
<path d="M78.3374 19.7397L79.0308 23.9639C79.651 27.742 82.6021 30.7032 86.3673 31.3255L90.5771 32.0213L86.3673 32.7171C82.6021 33.3394 79.651 36.3006 79.0308 40.0787L78.3374 44.3029L77.644 40.0787C77.0238 36.3006 74.0727 33.3394 70.3074 32.7171L66.0977 32.0213L70.3074 31.3255C74.0727 30.7032 77.0238 27.742 77.644 23.9639L78.3374 19.7397Z"/>
</mask>
<path d="M78.3374 19.7397L79.0308 23.9639C79.651 27.742 82.6021 30.7032 86.3673 31.3255L90.5771 32.0213L86.3673 32.7171C82.6021 33.3394 79.651 36.3006 79.0308 40.0787L78.3374 44.3029L77.644 40.0787C77.0238 36.3006 74.0727 33.3394 70.3074 32.7171L66.0977 32.0213L70.3074 31.3255C74.0727 30.7032 77.0238 27.742 77.644 23.9639L78.3374 19.7397Z" fill="#FFF455"/>
<path d="M78.3374 19.7397L78.5297 19.7082L78.145 19.7082L78.3374 19.7397ZM90.5771 32.0213L90.6089 32.2136V31.829L90.5771 32.0213ZM78.3374 44.3029L78.145 44.3344H78.5297L78.3374 44.3029ZM66.0977 32.0213L66.0659 31.829L66.0659 32.2136L66.0977 32.0213ZM70.3074 31.3255L70.3392 31.5178L70.3392 31.5178L70.3074 31.3255ZM77.644 23.9639L77.8363 23.9955L77.8363 23.9955L77.644 23.9639ZM77.644 40.0787L77.8363 40.0471L77.8363 40.0471L77.644 40.0787ZM70.3074 32.7171L70.3392 32.5248L70.3392 32.5248L70.3074 32.7171ZM86.3673 32.7171L86.3356 32.5248L86.3356 32.5248L86.3673 32.7171ZM79.0308 40.0787L78.8385 40.0471L78.8385 40.0471L79.0308 40.0787ZM79.0308 23.9639L78.8385 23.9955L78.8385 23.9955L79.0308 23.9639ZM86.3673 31.3255L86.3356 31.5178L86.3356 31.5178L86.3673 31.3255ZM78.145 19.7713L78.8385 23.9955L79.2232 23.9323L78.5297 19.7082L78.145 19.7713ZM86.3356 31.5178L90.5454 32.2136L90.6089 31.829L86.3991 31.1332L86.3356 31.5178ZM90.5454 31.829L86.3356 32.5248L86.3991 32.9094L90.6089 32.2136L90.5454 31.829ZM78.8385 40.0471L78.145 44.2713L78.5297 44.3344L79.2232 40.1103L78.8385 40.0471ZM78.5297 44.2713L77.8363 40.0471L77.4516 40.1103L78.145 44.3344L78.5297 44.2713ZM70.3392 32.5248L66.1294 31.829L66.0659 32.2136L70.2757 32.9094L70.3392 32.5248ZM66.1294 32.2136L70.3392 31.5178L70.2757 31.1332L66.0659 31.829L66.1294 32.2136ZM77.8363 23.9955L78.5297 19.7713L78.145 19.7082L77.4516 23.9323L77.8363 23.9955ZM70.3392 31.5178C74.1873 30.8818 77.2027 27.8557 77.8363 23.9955L77.4516 23.9323C76.8449 27.6284 73.9581 30.5246 70.2757 31.1332L70.3392 31.5178ZM77.8363 40.0471C77.2027 36.1869 74.1873 33.1608 70.3392 32.5248L70.2757 32.9094C73.9581 33.518 76.8449 36.4143 77.4516 40.1103L77.8363 40.0471ZM86.3356 32.5248C82.4875 33.1608 79.4721 36.1869 78.8385 40.0471L79.2232 40.1103C79.8299 36.4143 82.7167 33.518 86.3991 32.9094L86.3356 32.5248ZM78.8385 23.9955C79.4721 27.8557 82.4875 30.8818 86.3356 31.5178L86.3991 31.1332C82.7167 30.5246 79.8299 27.6284 79.2232 23.9323L78.8385 23.9955Z" fill="#F8ED54" mask="url(#path-1-inside-1_76_81)"/>
<path d="M90.7754 5.90089L91.1721 3.49222L91.5689 5.90089C91.9701 8.33691 93.8794 10.2462 96.3154 10.6474L98.7241 11.0442L96.3154 11.4409C93.8794 11.8422 91.9701 13.7515 91.5689 16.1875L91.1721 18.5961L90.7754 16.1875C90.3741 13.7515 88.4648 11.8422 86.0288 11.4409L83.6202 11.0442L86.0288 10.6474C88.4648 10.2462 90.3741 8.3369 90.7754 5.90089Z" fill="#FFF455" stroke="#F4E401" stroke-width="0.097463"/>
<path d="M6.32773 16.1118L6.32774 16.1118C7.29798 14.0695 8.74462 11.5627 10.0368 9.56653C10.683 8.56839 11.2893 7.69976 11.7771 7.08152C12.0212 6.77209 12.2339 6.52766 12.4059 6.36145C12.492 6.27821 12.5656 6.21683 12.626 6.17689C12.6897 6.13478 12.7258 6.12527 12.74 6.12527C12.8299 6.12527 12.9691 6.15408 13.1504 6.21165C13.3294 6.26846 13.5413 6.3506 13.7735 6.45122C14.2378 6.65239 14.7777 6.92515 15.2869 7.21018C15.7964 7.49538 16.2725 7.79136 16.6097 8.03853C16.7789 8.16255 16.9095 8.27168 16.9918 8.35907C17.0333 8.40315 17.0585 8.43752 17.0711 8.46203C17.0749 8.46955 17.0769 8.47474 17.0779 8.47796C16.9662 8.72941 15.8278 11.0537 14.5238 13.6936C12.1813 18.4361 10.416 24.2438 9.7931 29.2616C9.6807 30.1664 9.65146 30.8087 9.70772 31.1819C9.72191 31.276 9.74213 31.3574 9.7701 31.4233C9.79772 31.4884 9.83641 31.5468 9.89258 31.5833C9.95256 31.6223 10.0205 31.6288 10.0871 31.6107C10.15 31.5936 10.2112 31.555 10.2699 31.5048C10.3876 31.4044 10.5197 31.2366 10.666 31.0097C10.8134 30.7811 10.9789 30.4864 11.1621 30.1268C11.5286 29.4075 11.9684 28.4235 12.4779 27.1788C16.2032 18.0789 20.5185 11.5693 27.2172 4.94329C28.4632 3.71107 29.6927 2.59247 30.6694 1.78314C31.158 1.37832 31.5819 1.05203 31.9122 0.827779C32.0775 0.715548 32.2176 0.63014 32.3294 0.573336C32.4461 0.514049 32.5174 0.493835 32.551 0.494196C32.653 0.495292 32.8238 0.535559 33.0531 0.615868C33.2792 0.695037 33.5525 0.809564 33.8551 0.95138C34.4601 1.23495 35.1771 1.6253 35.859 2.05357L35.9109 1.97104L35.8591 2.05359L38.2537 3.55673L37.3458 4.58914L37.419 4.6535L37.3458 4.58915C36.8053 5.20406 35.2504 6.97635 33.8915 8.52757C30.9606 11.8721 27.6613 16.8333 25.522 21.1118C24.6391 22.8778 23.6473 25.53 22.9194 27.868C22.5553 29.0373 22.2566 30.1302 22.0703 30.9963C21.9772 31.4292 21.9118 31.8073 21.8806 32.1108C21.8499 32.409 21.8502 32.6512 21.9005 32.8018L21.9929 32.7709L21.9005 32.8018C21.9127 32.8383 21.935 32.8777 21.9758 32.9029C22.0182 32.9292 22.0644 32.9301 22.1033 32.921C22.1732 32.9045 22.2441 32.8499 22.3106 32.7861C22.4497 32.6526 22.6289 32.4183 22.8347 32.1083C23.2482 31.4854 23.7846 30.5337 24.3448 29.4035C28.8295 20.3558 35.0604 12.6724 42.1948 7.38864C42.3419 7.27972 42.485 7.17365 42.6243 7.07038C43.8488 6.16283 44.7811 5.47187 45.5272 4.9715C46.3597 4.41312 46.9493 4.09999 47.4445 3.98581C47.9312 3.87358 48.3329 3.95231 48.7967 4.19957C49.2198 4.42519 49.6875 4.78697 50.3119 5.26995C50.3824 5.32453 50.455 5.38067 50.5297 5.43833L50.5893 5.36116L50.5297 5.43833C51.2227 5.97295 51.84 6.49055 52.2761 6.8934C52.4945 7.09512 52.6656 7.26643 52.7779 7.39581C52.8344 7.46089 52.8734 7.51248 52.8962 7.55019C52.9024 7.56044 52.9067 7.5687 52.9097 7.57507C52.9079 7.57755 52.9057 7.58038 52.9031 7.5836C52.8885 7.60207 52.8671 7.62673 52.8385 7.65771C52.7816 7.71951 52.7001 7.80244 52.596 7.90445C52.3881 8.10826 52.0936 8.38506 51.7337 8.71517C51.0141 9.37523 50.0354 10.2465 48.9716 11.1694L49.0355 11.243L48.9716 11.1694C41.4989 17.6534 37.5311 22.239 34.9254 27.4129C34.1386 28.9749 33.4016 31.0599 32.9544 32.7545C32.7309 33.6015 32.5785 34.3552 32.5294 34.8997C32.5049 35.1705 32.5052 35.3975 32.5389 35.5603C32.5556 35.6414 32.5824 35.7155 32.6261 35.7712C32.6728 35.8307 32.7382 35.8677 32.8182 35.8677C32.8599 35.8677 32.8938 35.8464 32.9123 35.8333C32.9345 35.8176 32.9572 35.7967 32.9797 35.7735C33.0251 35.7266 33.0791 35.6603 33.1399 35.5787C33.2619 35.4148 33.4181 35.1797 33.5973 34.8919C33.9561 34.3159 34.4111 33.5227 34.8759 32.6511L34.8759 32.6511C38.8286 25.2341 44.7544 20.9975 51.119 20.997C53.1647 20.9967 54.7293 21.2625 56.0447 21.8959C57.3591 22.5288 58.4339 23.5331 59.4925 25.026L59.572 24.9696L59.4925 25.026C60.2269 26.0616 60.6007 26.6486 60.7971 27.602C60.9954 28.5648 61.013 29.9013 61.013 32.4365C61.013 33.892 60.9841 35.2404 60.9377 36.2401C60.9145 36.7401 60.887 37.1516 60.8566 37.4452C60.8414 37.5923 60.8257 37.7078 60.8098 37.7894C60.8019 37.8303 60.7943 37.8603 60.7876 37.8804C60.7859 37.8858 60.7843 37.8899 60.7831 37.893C60.7803 37.8946 60.7764 37.8967 60.7712 37.8992C60.7576 37.9058 60.7389 37.9136 60.7146 37.9223C60.666 37.9398 60.6001 37.9593 60.5179 37.9803C60.3537 38.0222 60.1308 38.0688 59.8647 38.1169C59.3327 38.213 58.633 38.3145 57.8945 38.3979L55.3107 38.6898V36.4897C55.3107 35.2025 55.0461 33.9304 54.6184 32.9158C54.1931 31.9069 53.5966 31.1305 52.9175 30.8697L52.8825 30.9607L52.9174 30.8697C50.7729 30.0469 48.5019 30.7166 46.443 32.5473C44.3851 34.3773 42.5278 37.3747 41.1924 41.2418C40.3755 43.6068 39.9463 46.7029 39.9135 49.5339C39.8971 50.95 39.9799 52.3021 40.1638 53.4657C40.3474 54.6273 40.6331 55.6088 41.0272 56.2779C42.5934 58.9375 44.6304 60.2343 47.1982 60.1791C50.8997 60.0991 53.7723 57.3479 53.7723 53.8578C53.7723 52.796 53.4469 51.8713 52.8235 51.1238C52.2008 50.3773 51.2857 49.8133 50.1147 49.4625L48.1814 48.8833L48.4793 46.6045C48.564 45.9569 48.6593 45.3468 48.7444 44.8861C48.7869 44.6556 48.8267 44.4636 48.8612 44.3233C48.8785 44.253 48.894 44.1973 48.9075 44.1567C48.9143 44.1364 48.9201 44.1213 48.9248 44.1107C48.925 44.1103 48.9252 44.1099 48.9254 44.1095C48.9303 44.1077 48.9363 44.1057 48.9436 44.1036C48.9522 44.1011 48.9627 44.0984 48.9751 44.0955C49.0244 44.0842 49.0951 44.0726 49.1862 44.0613C49.3679 44.0387 49.6221 44.0181 49.931 44.0007C50.5484 43.966 51.3788 43.9443 52.2728 43.9443C54.647 43.9443 56.5312 44.3911 58.0321 45.3387C59.5322 46.2859 60.6594 47.7397 61.5087 49.7724C62.6497 52.5029 62.475 56.0015 61.261 59.4433C60.0477 62.8835 57.7997 66.2553 54.8116 68.7272C53.2119 70.0504 50.3723 71.4028 47.3401 72.4249C44.3088 73.4466 41.101 74.1328 38.7702 74.1328H38.764H38.7578H38.7516H38.7454H38.7393H38.7332H38.7272H38.7211H38.7152H38.7092H38.7032H38.6973H38.6915H38.6856H38.6798H38.674H38.6683H38.6625H38.6568H38.6512H38.6455H38.6399H38.6344H38.6288H38.6233H38.6178H38.6123H38.6069H38.6015H38.5961H38.5908H38.5854H38.5802H38.5749H38.5697H38.5644H38.5593H38.5541H38.549H38.5439H38.5388H38.5338H38.5288H38.5238H38.5188H38.5139H38.509H38.5041H38.4993H38.4944H38.4896H38.4849H38.4801H38.4754H38.4707H38.466H38.4614H38.4568H38.4522H38.4476H38.4431H38.4385H38.4341H38.4296H38.4252H38.4207H38.4163H38.412H38.4076H38.4033H38.399H38.3948H38.3905H38.3863H38.3821H38.3779H38.3738H38.3697H38.3656H38.3615H38.3574H38.3534H38.3494H38.3454H38.3414H38.3375H38.3336H38.3297H38.3258H38.322H38.3181H38.3143H38.3106H38.3068H38.3031H38.2994H38.2957H38.292H38.2883H38.2847H38.2811H38.2775H38.274H38.2704H38.2669H38.2634H38.2599H38.2564H38.253H38.2496H38.2462H38.2428H38.2394H38.2361H38.2328H38.2295H38.2262H38.2229H38.2197H38.2165H38.2133H38.2101H38.2069H38.2038H38.2007H38.1976H38.1945H38.1914H38.1884H38.1853H38.1823H38.1793H38.1763H38.1734H38.1704H38.1675H38.1646H38.1617H38.1589H38.156H38.1532H38.1503H38.1475H38.1448H38.142H38.1392H38.1365H38.1338H38.1311H38.1284H38.1257H38.1231H38.1204H38.1178H38.1152H38.1126H38.1101H38.1075H38.105H38.1024H38.0999H38.0974H38.0949H38.0925H38.09H38.0876H38.0852H38.0828H38.0804H38.078H38.0756H38.0733H38.0709H38.0686H38.0663H38.064H38.0617H38.0595H38.0572H38.055H38.0528H38.0505H38.0483H38.0462H38.044H38.0418H38.0397H38.0375H38.0354H38.0333H38.0312H38.0291H38.027H38.025H38.0229H38.0209H38.0188H38.0168H38.0148H38.0128H38.0108H38.0089H38.0069H38.005H38.003H38.0011H37.9992H37.9973H37.9954H37.9935H37.9916H37.9897H37.9879H37.986H37.9842H37.9824H37.9805H37.9787H37.9769H37.9752H37.9734H37.9716H37.9698H37.9681H37.9663H37.9646H37.9629H37.9612H37.9594H37.9577H37.9561H37.9544H37.9527H37.951H37.9494H37.9477H37.9461H37.9444H37.9428H37.9412H37.9395H37.9379H37.9363H37.9347H37.9331H37.9316H37.93H37.9284H37.9268H37.9253H37.9237H37.9222H37.9207H37.9191H37.9176H37.9161H37.9145H37.913H37.9115H37.91H37.9085H37.907H37.9056H37.9041H37.9026H37.9011H37.8997H37.8982H37.8967H37.8953H37.8938H37.8924H37.8909H37.8895H37.8881H37.8866H37.8852H37.8838H37.8824H37.881H37.8795H37.8781H37.8767H37.8753H37.8739H37.8725H37.8711H37.8697H37.8683H37.8669H37.8655H37.8642H37.8628H37.8614H37.86H37.8586H37.8572H37.8559H37.8545H37.8531H37.8517H37.8504H37.849H37.8476H37.8462H37.8449H37.8435H37.8421H37.8408H37.8394H37.838H37.8367H37.8353H37.8339H37.8326H37.8312H37.8298H37.8284H37.8271H37.8257H37.8243H37.823H37.8216H37.8202H37.8188H37.8174H37.8161H37.8147H37.8133H37.8119H37.8105H37.8091H37.8077H37.8063H37.8049H37.8035H37.8021H37.8007H37.7993H37.7979H37.7965H37.7951H37.7937H37.7922H37.7908H37.7894H37.7879H37.7865H37.7851H37.7836H37.7822H37.7807H37.7793H37.7778H37.7763H37.7748H37.7734H37.7719H37.7704H37.7689H37.7674H37.7659H37.7644H37.7629H37.7614H37.7599H37.7583H37.7568H37.7553H37.7537H37.7522H37.7506H37.7491H37.7475H37.7459H37.7443H37.7427H37.7411H37.7395H37.7379H37.7363H37.7347H37.733H37.7314H37.7298H37.7281H37.7264H37.7248H37.7231H37.7214H37.7197H37.718H37.7163H37.7146H37.7129H37.7111H37.7094H37.7076H37.7059H37.7041H37.7023H37.7005H37.6987H37.6969H37.6951H37.6933H37.6915H37.6896H37.6878H37.6859H37.684H37.6821H37.6802H37.6783H37.6764H37.6745H37.6725H37.6706H37.6686H37.6667H37.6647H37.6627H37.6607H37.6587H37.6566H37.6546H37.6525H37.6505H37.6484H37.6463H37.6442H37.6421H37.64H37.6379H37.6357H37.6335H37.6314H37.6292H37.627H37.6248H37.6225H37.6203H37.6181H37.6158H37.6135H37.6112H37.6089H37.6066H37.6043H37.6019H37.5995H37.5972H37.5948H37.5924H37.59H37.5875H37.5851H37.5826H37.5801H37.5776H37.5751H37.5726H37.5701H37.5675H37.5649H37.5623H37.5597H37.5571H37.5545H37.5518H37.5492H37.5465H37.5438H37.5411H37.5383H37.5356H37.5328H37.53H37.5272H37.5244H37.5216H37.5187H37.5159H37.513H37.5101H37.5072H37.5042H37.5013H37.4983H37.4953H37.4923H37.4893H37.4862H37.4831H37.4801H37.4769H37.4738H37.4707H37.4675H37.4643H37.4611H37.4579H37.4547H37.4514H37.4482H37.4449H37.4415H37.4382H37.4348H37.4315H37.4281H37.4247L36.98 74.1328L36.8005 74.1328H36.7471H36.7327H36.7289L36.728 74.1328H36.7277H36.7276C36.5663 74.1328 36.2882 74.1334 34.548 74.1373C33.5211 74.1396 31.9852 74.1431 29.6637 74.1482C26.5477 74.1553 25.1616 74.1521 24.1603 74.1498C23.7784 74.149 23.4525 74.1482 23.108 74.1482L23.0703 74.3356C23.9687 74.7122 36.6564 80.3317 36.9409 80.4622L36.9408 80.4623L36.9457 80.4643C37.0639 80.5109 37.1439 80.544 37.2202 80.5757L37.2332 80.5811C37.3049 80.6109 37.3753 80.6401 37.4725 80.6786C37.5214 80.6979 37.5355 80.7059 37.5555 80.7164C37.5725 80.7253 37.5914 80.735 37.6246 80.7495C37.6442 81.7218 37.6381 84.1063 37.6312 86.7942C37.6273 88.2948 37.6232 89.89 37.6232 91.3867V91.4115V91.4364V91.4612V91.486V91.5108V91.5356V91.5604V91.5852V91.61V91.6348V91.6596V91.6844V91.7092V91.734V91.7588V91.7835V91.8083V91.8331V91.8579V91.8826V91.9074V91.9321V91.9569V91.9816V92.0064V92.0311V92.0558V92.0806V92.1053V92.13V92.1547V92.1794V92.2041V92.2288V92.2535V92.2781V92.3028V92.3275V92.3521V92.3768V92.4014V92.4261V92.4507V92.4753V92.4999V92.5246V92.5492V92.5737V92.5983V92.6229V92.6475V92.672V92.6966V92.7211V92.7457V92.7702V92.7947V92.8192V92.8437V92.8682V92.8927V92.9171V92.9416V92.966V92.9905V93.0149V93.0393V93.0637V93.0881V93.1125V93.1369V93.1612V93.1856V93.2099V93.2342V93.2586V93.2829V93.3072V93.3314V93.3557V93.38V93.4042V93.4284V93.4526V93.4768V93.501V93.5252V93.5494V93.5735V93.5977V93.6218V93.6459V93.67V93.6941V93.7181V93.7422V93.7662V93.7903V93.8143V93.8382V93.8622V93.8862V93.9101V93.9341V93.958V93.9819V94.0058V94.0296V94.0535V94.0773V94.1012V94.125V94.1487V94.1725V94.1963V94.22V94.2437V94.2674V94.2911V94.3148V94.3384V94.3621V94.3857V94.4093V94.4328V94.4564V94.4799V94.5034V94.5269V94.5504V94.5739V94.5973V94.6208V94.6442V94.6675V94.6909V94.7143V94.7376V94.7609V94.7842V94.8074V94.8307V94.8539V94.8771V94.9003V94.9234V94.9466V94.9697V94.9928V95.0159V95.0389V95.062V95.085V95.1079V95.1309V95.1538V95.1768V95.1997V95.2225V95.2454V95.2682V95.291V95.3138V95.3365V95.3593V95.382V95.4047V95.4273V95.45V95.4726V95.4951V95.5177V95.5402V95.5628V95.5852V95.6077V95.6301V95.6525V95.6749V95.6973V95.7196V95.7419V95.7642V95.7865V95.8087V95.8309V95.8531V95.8752V95.8973V95.9194V95.9415V95.9635V95.9856V96.0075V96.0295V96.0514V96.0733V96.0952V96.117V96.1389V96.1606V96.1824V96.2041V96.2258V96.2475V96.2691V96.2907V96.3123V96.3339V96.3554V96.3769V96.3984V96.4198V96.4412V96.4626V96.4839V96.5052V96.5265V96.5477V96.569V96.5901V96.6113V96.6324V96.6535V96.6746V96.6956V96.7166V96.7376V96.7585V96.7794V96.8003V96.8211V96.8419V96.8626V96.8834V96.9041V96.9248V96.9454V96.966V96.9865V97.0071V97.0276V97.048V97.0685V97.0889V97.1092V97.1295V97.1498V97.1701V97.1903V97.2105V97.2306V97.2507V97.2708V97.2909V97.3109V97.3308V97.3508V97.3707V97.3905V97.4103V97.4301V97.4499V97.4696V97.4893V97.5089V97.5285V97.5481V97.5676V97.5871V97.6065V97.6259V97.6453V97.6646V97.6839V97.7032V97.7224V97.7416V97.7607V97.7798V97.7989V97.8179V97.8369V97.8558V97.8747V97.8936V97.9124V97.9312V97.9499V97.9686V97.9873V98.0059V98.0245V98.043V98.0615V98.0799V98.0983V98.1167V98.135V98.1533V98.1716V98.1898V98.2079V98.226V98.2441V98.2621V98.2801V98.2981V98.316V98.3338V98.3516V98.3694V98.3871V98.4048V98.4225V98.4401V98.4576V98.4751V98.4926V98.51V98.5274V98.5447V98.562V98.5792V98.5964V98.6135V98.6306V98.6477V98.6647V98.6817V98.6986V98.7154V98.7323V98.749V98.7658V98.7825V98.7991V98.8157V98.8322V98.8487V98.8652V98.8816V98.8979V98.9142V98.9305V98.9467V98.9628V98.9789V98.995V99.011V99.027V99.0429V99.0588V99.0746V99.0903V99.1061V99.1217V99.1373V99.1529V99.1684V99.1839V99.1993V99.2147V99.23V99.2453V99.2605V99.2756V99.2907V99.3058V99.3208V99.3358V99.3507V99.3655V99.3803V99.3951V99.4098V99.4244V99.439V99.4535V99.468V99.4825V99.4968V99.5112V99.5255V99.5397V99.5538V99.5679V99.582V99.596V99.61V99.6239V99.6377V99.6515V99.6652V99.6789V99.6925V99.7061V99.7196V99.7331V99.7465V99.7598V99.7731V99.7863V99.7995V99.8126V99.8257V99.8387V99.8517V99.8646V99.8774V99.8902V99.9029V99.9156V99.9282V99.9407V99.9532V99.9657V99.9781V99.9904V100.003V100.015V100.027V100.039V100.051V100.063V100.075V100.087V100.099V100.11V100.122V100.134V100.145V100.157V100.168V100.18V100.191V100.202V100.213V100.224V100.235V100.246V100.257V100.268V100.279V100.29V100.301V100.311V100.322V100.332V100.343V100.353V100.364V100.374V100.384V100.394V100.404V100.414V100.424V100.434V100.444V100.454V100.463V100.473V100.483V100.492V100.501V100.511V100.52V100.529V100.539V100.548V100.557V100.566V100.575V100.583V100.592V100.601V100.61V100.618V100.627V100.635V100.644V100.652V100.66V100.668V100.676V100.685V100.693V100.7V100.708V100.716V100.724V100.731V100.739V100.747V100.754V100.761V100.769V100.776V100.783V100.79V100.797V100.804V100.811V100.818V100.825V100.831V100.838V100.844V100.851V100.857V100.864V102.85H20.835H1.62878L1.29374 89.4837C1.03839 79.3037 0.936733 66.7905 0.974101 56.122C1.01148 45.4506 1.18799 36.6326 1.48808 33.8377C2.13214 27.8414 3.99455 21.0207 6.32773 16.1118ZM17.0817 8.46947L17.0816 8.46961L17.0817 8.46947ZM52.9155 7.5901C52.9155 7.59014 52.9154 7.58973 52.9153 7.58893L52.9155 7.5901ZM12.3877 27.1419C10.3519 32.116 9.44009 32.8939 9.88982 29.2736L27.1486 4.874C20.4402 11.5096 16.1178 18.0304 12.3877 27.1419Z" fill="#FED2BC" stroke="#F8C99B" stroke-width="0.194926"/>
<path d="M37.6858 80.6746C37.6858 80.6746 28.2374 76.5758 22.6797 74.1753L37.6858 74.1753V80.6746Z" fill="#EBA37F"/>
</svg>
