<svg width="292" height="305" viewBox="0 0 292 305" fill="none" xmlns="http://www.w3.org/2000/svg">
<mask id="path-1-inside-1_76_81" fill="white">
<path d="M230.214 57.6389L232.271 70.1734C234.112 81.3842 242.868 90.1709 254.041 92.0175L266.533 94.0821L254.041 96.1468C242.868 97.9934 234.112 106.78 232.271 117.991L230.214 130.525L228.156 117.991C226.316 106.78 217.559 97.9934 206.386 96.1468L193.895 94.0821L206.386 92.0175C217.559 90.1709 226.316 81.3842 228.156 70.1734L230.214 57.6389Z"/>
</mask>
<path d="M230.214 57.6389L232.271 70.1734C234.112 81.3842 242.868 90.1709 254.041 92.0175L266.533 94.0821L254.041 96.1468C242.868 97.9934 234.112 106.78 232.271 117.991L230.214 130.525L228.156 117.991C226.316 106.78 217.559 97.9934 206.386 96.1468L193.895 94.0821L206.386 92.0175C217.559 90.1709 226.316 81.3842 228.156 70.1734L230.214 57.6389Z" fill="#FFF455"/>
<path d="M230.214 57.6389L230.475 57.5961L229.953 57.5961L230.214 57.6389ZM266.533 94.0821L266.576 94.3431V93.8212L266.533 94.0821ZM230.214 130.525L229.953 130.568H230.475L230.214 130.525ZM193.895 94.0821L193.851 93.8212L193.851 94.3431L193.895 94.0821ZM206.386 92.0175L206.429 92.2785L206.429 92.2785L206.386 92.0175ZM228.156 70.1734L228.417 70.2162L228.417 70.2162L228.156 70.1734ZM228.156 117.991L228.417 117.948L228.417 117.948L228.156 117.991ZM206.386 96.1468L206.429 95.8858L206.429 95.8858L206.386 96.1468ZM254.041 96.1468L253.998 95.8858L253.998 95.8858L254.041 96.1468ZM232.271 117.991L232.01 117.948L232.01 117.948L232.271 117.991ZM232.271 70.1734L232.01 70.2162L232.01 70.2162L232.271 70.1734ZM254.041 92.0175L253.998 92.2785L253.998 92.2785L254.041 92.0175ZM229.953 57.6818L232.01 70.2162L232.532 70.1305L230.475 57.5961L229.953 57.6818ZM253.998 92.2785L266.49 94.3431L266.576 93.8212L254.084 91.7566L253.998 92.2785ZM266.49 93.8212L253.998 95.8858L254.084 96.4077L266.576 94.3431L266.49 93.8212ZM232.01 117.948L229.953 130.483L230.475 130.568L232.532 118.034L232.01 117.948ZM230.475 130.483L228.417 117.948L227.895 118.034L229.953 130.568L230.475 130.483ZM206.429 95.8858L193.938 93.8212L193.851 94.3431L206.343 96.4077L206.429 95.8858ZM193.938 94.3431L206.429 92.2785L206.343 91.7566L193.851 93.8212L193.938 94.3431ZM228.417 70.2162L230.475 57.6818L229.953 57.5961L227.895 70.1305L228.417 70.2162ZM206.429 92.2785C217.714 90.4133 226.558 81.5384 228.417 70.2162L227.895 70.1305C226.073 81.2299 217.403 89.9285 206.343 91.7566L206.429 92.2785ZM228.417 117.948C226.558 106.626 217.714 97.751 206.429 95.8858L206.343 96.4077C217.403 98.2357 226.073 106.934 227.895 118.034L228.417 117.948ZM253.998 95.8858C242.713 97.751 233.869 106.626 232.01 117.948L232.532 118.034C234.354 106.934 243.024 98.2357 254.084 96.4077L253.998 95.8858ZM232.01 70.2162C233.869 81.5384 242.713 90.4133 253.998 92.2785L254.084 91.7566C243.024 89.9285 234.354 81.2299 232.532 70.1305L232.01 70.2162Z" fill="#F8ED54" mask="url(#path-1-inside-1_76_81)"/>
<path d="M267.042 16.5621L268.297 8.9447L269.551 16.5621C270.737 23.7573 276.376 29.3967 283.571 30.5819L291.189 31.8366L283.571 33.0913C276.376 34.2765 270.737 39.9159 269.551 47.1111L268.297 54.7285L267.042 47.1111C265.857 39.9159 260.217 34.2765 253.022 33.0913L245.405 31.8366L253.022 30.5819C260.218 29.3967 265.857 23.7573 267.042 16.5621Z" fill="#FFF455" stroke="#F4E401" stroke-width="0.132249"/>
<path d="M48.5914 24.2589L48.5914 24.2591C48.3299 24.8652 44.9133 31.8414 40.9982 39.7676C34.0548 53.825 28.8219 71.0414 26.9758 85.9125C26.6422 88.5978 26.5585 90.4843 26.7219 91.5679C26.7629 91.84 26.8203 92.0674 26.8963 92.2465C26.9718 92.4246 27.0704 92.5661 27.2008 92.651C27.3363 92.7392 27.4907 92.756 27.6511 92.7123C27.8065 92.67 27.9675 92.5714 28.133 92.4302C28.4642 92.1475 28.8464 91.6653 29.2783 90.9953C29.7117 90.3231 30.2002 89.4536 30.7425 88.3893C31.8271 86.2605 33.1304 83.345 34.6413 79.6535C45.7033 52.6327 58.5194 33.2986 78.4123 13.6217C82.1123 9.96275 85.764 6.6403 88.6664 4.23526C90.1179 3.03252 91.3801 2.06079 92.3661 1.39139C92.8594 1.05655 93.281 0.799067 93.6212 0.626297C93.968 0.450159 94.2099 0.372936 94.3514 0.374458C94.6818 0.37801 95.2098 0.505527 95.8917 0.744307C96.5692 0.981541 97.3853 1.32368 98.2861 1.7459C100.087 2.59024 102.221 3.75166 104.249 5.02565L104.32 4.91365L104.249 5.02566L111.511 9.58403L108.695 12.786L108.786 12.8654L108.695 12.786C107.092 14.6106 102.478 19.8694 98.4455 24.4724C89.7581 34.3859 79.9754 49.096 73.6331 61.7806C71.0183 67.0102 68.0783 74.8712 65.9197 81.8046C64.8403 85.2718 63.9553 88.5099 63.4039 91.0738C63.1282 92.3554 62.9353 93.4711 62.8434 94.3637C62.7523 95.2493 62.7579 95.9369 62.8953 96.3483L63.0051 96.3116L62.8953 96.3483C62.9247 96.4362 62.9734 96.5159 63.0524 96.5648C63.1336 96.6151 63.2253 96.6195 63.3121 96.599C63.4749 96.5606 63.6591 96.4261 63.8548 96.2383C64.2543 95.8548 64.778 95.1718 65.3877 94.2534C66.6098 92.4128 68.1981 89.595 69.8588 86.2447C83.1758 59.3781 101.68 36.5586 122.873 20.8632C123.309 20.5397 123.735 20.2246 124.148 19.9178C127.78 17.226 130.55 15.1735 132.767 13.6866C135.239 12.0288 137.008 11.085 138.508 10.7392C139.996 10.396 141.227 10.6401 142.63 11.3879C143.898 12.064 145.297 13.1465 147.145 14.5765C147.356 14.7392 147.572 14.9063 147.794 15.0779C149.853 16.6663 151.688 18.2052 152.987 19.4046C153.636 20.0046 154.149 20.5175 154.488 20.9078C154.658 21.1035 154.78 21.2644 154.855 21.3877C154.892 21.4495 154.914 21.4973 154.925 21.5319C154.932 21.5522 154.933 21.5631 154.933 21.5672C154.932 21.5682 154.932 21.5694 154.931 21.571C154.929 21.5736 154.928 21.5766 154.926 21.58C154.923 21.5838 154.921 21.5881 154.917 21.5931C154.912 21.6013 154.906 21.6105 154.898 21.6207C154.888 21.6339 154.877 21.6488 154.864 21.6654C154.817 21.7245 154.751 21.8009 154.665 21.8941C154.493 22.0804 154.249 22.3286 153.94 22.632C153.321 23.2386 152.445 24.0612 151.377 25.0413C149.24 27.0011 146.335 29.5874 143.178 32.3265L143.264 32.4264L143.178 32.3265C121.01 51.5614 109.254 65.1524 101.536 80.4781C99.2069 85.1011 97.0235 91.2774 95.6985 96.2979C95.0361 98.8077 94.5867 101.035 94.442 102.637C94.3698 103.437 94.3723 104.092 94.4675 104.552C94.5149 104.781 94.5878 104.974 94.6962 105.112C94.8087 105.256 94.959 105.339 95.1426 105.339C95.215 105.339 95.2813 105.301 95.331 105.266C95.3858 105.227 95.4456 105.172 95.5092 105.107C95.6369 104.975 95.7925 104.784 95.9713 104.544C96.3296 104.063 96.7905 103.37 97.3214 102.517C98.3838 100.812 99.7319 98.4612 101.11 95.8771L101.009 95.8231L101.11 95.8771C112.856 73.8361 130.485 61.2142 149.447 61.2127C155.53 61.2119 160.198 62.002 164.131 63.8955C168.062 65.7884 171.271 68.7901 174.422 73.2342C176.602 76.3088 177.729 78.0736 178.318 80.9371C178.911 83.8134 178.962 87.7984 178.962 95.3143C178.962 99.635 178.877 103.639 178.739 106.608C178.67 108.093 178.588 109.317 178.498 110.193C178.452 110.631 178.405 110.979 178.357 111.228C178.332 111.352 178.309 111.449 178.286 111.518C178.274 111.552 178.264 111.577 178.255 111.594C178.245 111.613 178.241 111.615 178.246 111.611C178.215 111.639 178.13 111.684 177.973 111.74C177.822 111.794 177.621 111.853 177.375 111.916C176.883 112.042 176.217 112.181 175.426 112.324C173.843 112.61 171.764 112.912 169.569 113.16L161.728 114.045V107.341C161.728 103.542 160.947 99.7878 159.686 96.7975C158.429 93.8148 156.681 91.5618 154.727 90.8115L154.68 90.935L154.727 90.8115C148.436 88.3977 141.758 90.3527 135.676 95.7604C129.596 101.167 124.097 110.035 120.14 121.494C117.723 128.491 116.451 137.661 116.354 146.049C116.305 150.245 116.55 154.248 117.094 157.69C117.638 161.129 118.482 164.019 119.637 165.979C124.262 173.835 130.259 177.641 137.809 177.478C148.717 177.242 157.163 169.14 157.163 158.878C157.163 155.761 156.209 153.053 154.384 150.866C152.56 148.68 149.874 147.02 146.422 145.986L140.557 144.229L141.459 137.335C141.71 135.411 141.993 133.598 142.246 132.228C142.373 131.542 142.492 130.969 142.595 130.549C142.647 130.338 142.694 130.168 142.736 130.042C142.757 129.979 142.776 129.929 142.793 129.891C142.808 129.857 142.819 129.839 142.825 129.831C142.827 129.83 142.839 129.821 142.873 129.808C142.914 129.792 142.973 129.775 143.05 129.757C143.204 129.722 143.42 129.687 143.692 129.653C144.236 129.585 144.995 129.524 145.913 129.472C147.749 129.369 150.216 129.305 152.871 129.305C159.935 129.305 165.558 130.634 170.044 133.466C174.529 136.298 177.892 140.642 180.421 146.695C183.827 154.844 183.3 165.268 179.69 175.504C176.08 185.737 169.394 195.767 160.504 203.121C155.735 207.066 147.287 211.086 138.284 214.121C129.281 217.155 119.745 219.197 112.804 219.197H112.786H112.767H112.749H112.731H112.713H112.694H112.676H112.659H112.641H112.623H112.605H112.588H112.571H112.553H112.536H112.519H112.502H112.485H112.468H112.451H112.434H112.418H112.401H112.385H112.368H112.352H112.336H112.32H112.304H112.288H112.272H112.256H112.24H112.225H112.209H112.194H112.178H112.163H112.148H112.133H112.118H112.103H112.088H112.073H112.058H112.044H112.029H112.015H112H111.986H111.972H111.957H111.943H111.929H111.915H111.902H111.888H111.874H111.86H111.847H111.833H111.82H111.807H111.793H111.78H111.767H111.754H111.741H111.728H111.715H111.703H111.69H111.677H111.665H111.653H111.64H111.628H111.616H111.603H111.591H111.579H111.567H111.555H111.544H111.532H111.52H111.509H111.497H111.486H111.474H111.463H111.451H111.44H111.429H111.418H111.407H111.396H111.385H111.374H111.364H111.353H111.342H111.332H111.321H111.311H111.3H111.29H111.28H111.269H111.259H111.249H111.239H111.229H111.219H111.209H111.2H111.19H111.18H111.171H111.161H111.152H111.142H111.133H111.123H111.114H111.105H111.096H111.087H111.078H111.069H111.06H111.051H111.042H111.033H111.024H111.016H111.007H110.999H110.99H110.982H110.973H110.965H110.957H110.948H110.94H110.932H110.924H110.916H110.908H110.9H110.892H110.884H110.876H110.868H110.861H110.853H110.845H110.838H110.83H110.823H110.815H110.808H110.8H110.793H110.786H110.779H110.771H110.764H110.757H110.75H110.743H110.736H110.729H110.722H110.715H110.709H110.702H110.695H110.688H110.682H110.675H110.669H110.662H110.656H110.649H110.643H110.636H110.63H110.624H110.617H110.611H110.605H110.599H110.593H110.587H110.581H110.575H110.569H110.563H110.557H110.551H110.545H110.539H110.533H110.528H110.522H110.516H110.511H110.505H110.499H110.494H110.488H110.483H110.477H110.472H110.466H110.461H110.456H110.45H110.445H110.44H110.434H110.429H110.424H110.419H110.414H110.409H110.403H110.398H110.393H110.388H110.383H110.378H110.373H110.368H110.364H110.359H110.354H110.349H110.344H110.339H110.335H110.33H110.325H110.32H110.316H110.311H110.306H110.302H110.297H110.292H110.288H110.283H110.279H110.274H110.27H110.265H110.261H110.256H110.252H110.247H110.243H110.238H110.234H110.23H110.225H110.221H110.217H110.212H110.208H110.204H110.199H110.195H110.191H110.187H110.182H110.178H110.174H110.17H110.165H110.161H110.157H110.153H110.149H110.145H110.14H110.136H110.132H110.128H110.124H110.12H110.116H110.111H110.107H110.103H110.099H110.095H110.091H110.087H110.083H110.079H110.075H110.071H110.067H110.062H110.058H110.054H110.05H110.046H110.042H110.038H110.034H110.03H110.026H110.022H110.018H110.014H110.01H110.006H110.002H109.997H109.993H109.989H109.985H109.981H109.977H109.973H109.969H109.965H109.961H109.956H109.952H109.948H109.944H109.94H109.936H109.932H109.927H109.923H109.919H109.915H109.911H109.906H109.902H109.898H109.894H109.889H109.885H109.881H109.877H109.872H109.868H109.864H109.859H109.855H109.851H109.846H109.842H109.837H109.833H109.829H109.824H109.82H109.815H109.811H109.806H109.802H109.797H109.793H109.788H109.783H109.779H109.774H109.769H109.765H109.76H109.755H109.751H109.746H109.741H109.736H109.731H109.727H109.722H109.717H109.712H109.707H109.702H109.697H109.692H109.687H109.682H109.677H109.672H109.667H109.662H109.656H109.651H109.646H109.641H109.635H109.63H109.625H109.619H109.614H109.609H109.603H109.598H109.592H109.587H109.581H109.575H109.57H109.564H109.559H109.553H109.547H109.541H109.535H109.53H109.524H109.518H109.512H109.506H109.5H109.494H109.488H109.482H109.475H109.469H109.463H109.457H109.45H109.444H109.438H109.431H109.425H109.418H109.412H109.405H109.399H109.392H109.385H109.379H109.372H109.365H109.358H109.351H109.344H109.337H109.33H109.323H109.316H109.309H109.302H109.295H109.287H109.28H109.273H109.265H109.258H109.25H109.243H109.235H109.228H109.22H109.212H109.205H109.197H109.189H109.181H109.173H109.165H109.157H109.149H109.141H109.132H109.124H109.116H109.108H109.099H109.091H109.082H109.074H109.065H109.056H109.048H109.039H109.03H109.021H109.012H109.003H108.994H108.985H108.976H108.967H108.957H108.948H108.939H108.929H108.92H108.91H108.901H108.891H108.881H108.871H108.862H108.852H108.842H108.832H108.822H108.811L107.492 219.197L106.959 219.197L106.801 219.197H106.758H106.747H106.744H106.743H106.743C106.262 219.197 105.431 219.199 100.194 219.211C97.1472 219.218 92.6096 219.228 85.7827 219.243C76.536 219.264 72.4224 219.254 69.4512 219.248C68.3183 219.245 67.3515 219.243 66.3295 219.243L66.2784 219.497C68.9463 220.616 106.596 237.291 107.441 237.679L107.441 237.679L107.448 237.682C107.8 237.82 108.038 237.919 108.265 238.013C108.492 238.107 108.707 238.197 109.011 238.318C109.154 238.374 109.204 238.401 109.261 238.431L109.273 238.437C109.333 238.469 109.403 238.504 109.56 238.569C109.62 241.389 109.602 248.543 109.581 256.615C109.57 261.067 109.558 265.799 109.558 270.238V270.312V270.385V270.459V270.532V270.606V270.68V270.753V270.827V270.9V270.974V271.048V271.121V271.195V271.268V271.342V271.415V271.489V271.562V271.636V271.709V271.783V271.856V271.93V272.003V272.077V272.15V272.223V272.297V272.37V272.443V272.517V272.59V272.663V272.737V272.81V272.883V272.956V273.029V273.103V273.176V273.249V273.322V273.395V273.468V273.541V273.614V273.687V273.76V273.833V273.906V273.979V274.052V274.125V274.197V274.27V274.343V274.416V274.489V274.561V274.634V274.706V274.779V274.852V274.924V274.997V275.069V275.142V275.214V275.286V275.359V275.431V275.503V275.576V275.648V275.72V275.792V275.864V275.936V276.008V276.08V276.152V276.224V276.296V276.368V276.44V276.512V276.583V276.655V276.727V276.798V276.87V276.942V277.013V277.085V277.156V277.227V277.299V277.37V277.441V277.512V277.583V277.655V277.726V277.797V277.868V277.939V278.009V278.08V278.151V278.222V278.292V278.363V278.434V278.504V278.575V278.645V278.716V278.786V278.856V278.926V278.997V279.067V279.137V279.207V279.277V279.347V279.416V279.486V279.556V279.626V279.695V279.765V279.834V279.904V279.973V280.042V280.112V280.181V280.25V280.319V280.388V280.457V280.526V280.595V280.664V280.732V280.801V280.87V280.938V281.007V281.075V281.143V281.212V281.28V281.348V281.416V281.484V281.552V281.62V281.688V281.755V281.823V281.891V281.958V282.026V282.093V282.16V282.228V282.295V282.362V282.429V282.496V282.563V282.63V282.696V282.763V282.829V282.896V282.962V283.029V283.095V283.161V283.227V283.293V283.359V283.425V283.491V283.557V283.622V283.688V283.753V283.819V283.884V283.949V284.014V284.08V284.145V284.209V284.274V284.339V284.404V284.468V284.533V284.597V284.661V284.726V284.79V284.854V284.918V284.982V285.045V285.109V285.173V285.236V285.3V285.363V285.426V285.489V285.552V285.615V285.678V285.741V285.804V285.866V285.929V285.991V286.053V286.116V286.178V286.24V286.302V286.363V286.425V286.487V286.548V286.61V286.671V286.732V286.793V286.854V286.915V286.976V287.037V287.097V287.158V287.218V287.279V287.339V287.399V287.459V287.519V287.579V287.638V287.698V287.757V287.817V287.876V287.935V287.994V288.053V288.112V288.171V288.229V288.288V288.346V288.404V288.462V288.521V288.578V288.636V288.694V288.752V288.809V288.866V288.924V288.981V289.038V289.095V289.152V289.208V289.265V289.321V289.378V289.434V289.49V289.546V289.602V289.657V289.713V289.768V289.824V289.879V289.934V289.989V290.044V290.099V290.153V290.208V290.262V290.317V290.371V290.425V290.479V290.532V290.586V290.639V290.693V290.746V290.799V290.852V290.905V290.958V291.01V291.063V291.115V291.167V291.219V291.271V291.323V291.375V291.426V291.478V291.529V291.58V291.631V291.682V291.733V291.783V291.834V291.884V291.934V291.984V292.034V292.084V292.134V292.183V292.233V292.282V292.331V292.38V292.429V292.477V292.526V292.574V292.623V292.671V292.719V292.766V292.814V292.862V292.909V292.956V293.003V293.05V293.097V293.144V293.19V293.236V293.283V293.329V293.375V293.42V293.466V293.511V293.557V293.602V293.647V293.692V293.736V293.781V293.825V293.869V293.913V293.957V294.001V294.045V294.088V294.132V294.175V294.218V294.26V294.303V294.346V294.388V294.43V294.472V294.514V294.556V294.597V294.639V294.68V294.721V294.762V294.803V294.843V294.884V294.924V294.964V295.004V295.044V295.083V295.123V295.162V295.201V295.24V295.279V295.318V295.356V295.394V295.432V295.47V295.508V295.546V295.583V295.62V295.657V295.694V295.731V295.768V295.804V295.84V295.876V295.912V295.948V295.983V296.019V296.054V296.089V296.124V296.158V296.193V296.227V296.261V296.295V296.329V296.362V296.396V296.429V296.462V296.495V296.528V296.56V296.592V296.624V296.656V296.688V296.72V296.751V296.782V296.813V296.844V296.875V296.905V296.936V296.966V296.996V297.025V297.055V297.084V297.113V297.142V297.171V297.2V297.228V297.256V297.284V297.312V297.34V297.367V297.394V297.421V297.448V297.475V297.501V297.528V297.554V297.58V297.605V297.631V297.656V297.681V297.706V297.731V297.755V297.779V297.804V297.827V297.851V297.875V297.898V297.921V297.944V297.967V297.989V298.011V298.034V298.055V298.077V298.099V298.12V298.141V298.162V298.182V298.203V298.223V298.243V298.263V298.283V298.302V298.321V298.34V298.359V304.409H59.5849H2.44086L1.44285 264.595C0.685114 234.386 0.383455 197.254 0.494342 165.596C0.605243 133.934 1.12883 107.759 2.02036 99.4551C3.93317 81.6468 9.46379 61.3902 16.3954 46.8064L16.2771 46.7502L16.3954 46.8064C19.2781 40.7385 23.5744 33.2941 27.4115 27.3666C29.33 24.4028 31.1321 21.8207 32.5839 19.9808C33.3101 19.0604 33.9463 18.3289 34.4639 17.8285C34.7229 17.5782 34.949 17.3888 35.1395 17.2628C35.3344 17.1339 35.4741 17.0836 35.5643 17.0836C35.8566 17.0836 36.2887 17.1755 36.8298 17.3473C37.3675 17.518 38.0018 17.7639 38.6936 18.0637C40.0772 18.6632 41.6842 19.4751 43.1986 20.3229C44.7135 21.1708 46.132 22.0526 47.1397 22.7912C47.6444 23.1611 48.0411 23.4916 48.2951 23.7613C48.4226 23.8967 48.5087 24.0111 48.5557 24.1029C48.6046 24.1982 48.5984 24.2429 48.5914 24.2589Z" fill="#FED2BC" stroke="#F8C99B" stroke-width="0.264498"/>
<path d="M109.586 238.452C109.586 238.452 81.5502 226.289 65.0586 219.166L109.586 219.166V238.452Z" fill="#EBA37F"/>
</svg>
